<?xml version="1.0" encoding="UTF-8"?><svg id="Layer_2" xmlns="http://www.w3.org/2000/svg" viewBox="0 0 33.19 43.51"><defs><style>.cls-1{fill:#fff;}</style></defs><g id="Layer_1-2"><g><path d="M26.76,33.81c-.42,.41-.57,.42-1.1,.15-4.54-2.28-9.07-4.56-13.61-6.85-2.4-1.21-4.79-2.41-7.19-3.62-.3-.15-.54-.32-.44-.73,.02-.08-.11-.22-.2-.29-.34-.25-.41-.48-.17-.84,.81-1.21,1.62-2.42,2.44-3.63,.25-.37,.58-.48,1-.33,1.78,.66,3.57,1.31,5.35,1.99,.24,.09,.36,.05,.46-.16,.06-.12,.13-.24,.21-.36,.35-.51,.85-.64,1.41-.37,.26,.13,.53,.24,.76,.41,.3,.22,.53,.13,.82-.04,1.78-1.07,2.52-2.75,2.87-4.7,.36-2.02,.29-4.06,.43-6.09,.07-1.06,.13-2.12,.28-3.16C20.54,1.9,23.7-.14,26.71,0c4.13,.21,7.08,3.9,6.38,7.98-.13,.78-.44,1.51-.91,2.15-.77,1.04-1.77,1.83-2.78,2.63-1.96,1.57-4.06,3-5.64,5-.96,1.2-1.45,2.55-1.33,4.1,.03,.41,.14,.7,.56,.85,.26,.09,.49,.24,.73,.38,.58,.34,.73,.89,.43,1.48-.04,.09-.07,.18-.13,.26-.17,.22-.11,.34,.12,.48,1.47,.96,2.94,1.94,4.4,2.92,.72,.48,.79,.67,.52,1.47-.41,1.21-.85,2.42-1.28,3.63-.23,.66-.36,.72-1.02,.46Z"/><g id="i1kqk2"><g><path d="M9.92,30.9h2.49c.06,.02,.12,.05,.18,.05,4.93,.34,8.99,2.64,9.59,5.42,0,.04,.06,.08,.1,.12v1.41s-.08,.07-.09,.11c-.06,.18-.1,.37-.17,.55-1.03,2.61-4.73,4.53-9.45,4.9-.06,0-.11,.03-.16,.05h-2.54c-.06-.02-.12-.05-.19-.05-.38-.04-.77-.07-1.15-.12-4.55-.64-7.79-2.69-8.44-5.32,0-.03-.06-.06-.09-.09v-1.41s.08-.07,.09-.11c.63-2.84,4.61-5.09,9.63-5.45,.07,0,.13-.03,.2-.05Zm-2.11,2.76c-.78,0-1.57,0-2.35,0-.39,0-.58,.1-.58,.32,0,.87,0,1.75,0,2.62,0,.21,.11,.29,.48,.32,.12,.01,.23,.01,.35,.01,1.39,0,2.79,0,4.18,0,.63,0,.78-.08,.79-.44,0-.01,0-.03,0-.04,0-.78,0-1.55,0-2.33,0-.08-.01-.17-.04-.25-.06-.18-.18-.23-.5-.23-.78,0-1.55,0-2.33,0Zm6.7,0c-.79,0-1.58,0-2.37,0-.3,0-.43,.06-.5,.22-.03,.06-.04,.13-.04,.2,0,.81,0,1.61,0,2.42,0,.37,.16,.45,.82,.44,1.08,0,2.16-.01,3.24-.01,.39,0,.78,.01,1.17,0,.38,0,.56-.12,.56-.33,0-.88,0-1.76,0-2.63,0-.21-.2-.32-.57-.32-.78,0-1.55,0-2.33,0Zm-9.62,5.45c0,.44,0,.89,0,1.33,0,.19,.2,.31,.53,.31,1.57,0,3.15,0,4.72,0,.3,0,.43-.05,.5-.22,.03-.07,.04-.14,.04-.21,0-.79,0-1.59,0-2.38,0-.39-.17-.48-.87-.48-1.09,0-2.18,.01-3.26,.01-.38,0-.75-.01-1.13,0-.37,0-.54,.12-.54,.32,0,.44,0,.88,0,1.32Zm12.51,.26c0-.56,0-1.11,0-1.67,0-.06-.12-.14-.22-.17-.26-.08-.55-.07-.86-.04v1.23h-1.13v-1.24c-.95,0-1.88,0-2.8,0-.66,0-.8,.09-.8,.47,.01,.76,.01,1.52,.02,2.29,0,.11,.02,.22,.06,.33,.04,.1,.17,.18,.36,.18,.21,0,.42,0,.66,0v-1.83h1.12v.45h3.59Zm-1.24,1.38c.28,0,.56,0,.83,0,.2,0,.4-.12,.41-.24,.02-.16,0-.32,0-.48h-1.24v.72Zm-2.33-.72v.72h1.16v-.72h-1.16Z"/><path class="cls-1" d="M7.8,33.66c.78,0,1.55,0,2.33,0,.32,0,.44,.05,.5,.23,.03,.08,.04,.17,.04,.25,0,.78,0,1.55,0,2.33,0,.01,0,.03,0,.04-.01,.35-.16,.44-.79,.44-1.39,0-2.79,0-4.18,0-.12,0-.24,0-.35-.01-.36-.03-.48-.11-.48-.32,0-.87,0-1.75,0-2.62,0-.22,.18-.32,.58-.32,.78,0,1.57,0,2.35,0Zm1.75,2.66v-2.04h-3.58v2.04h3.58Z"/><path class="cls-1" d="M14.5,33.66c.78,0,1.55,0,2.33,0,.37,0,.57,.11,.57,.32,0,.88,0,1.76,0,2.63,0,.21-.18,.32-.56,.33-.39,0-.78,0-1.17,0-1.08,0-2.16,0-3.24,.01-.66,0-.82-.07-.82-.44,0-.81,0-1.61,0-2.42,0-.07,.01-.13,.04-.2,.07-.16,.2-.22,.5-.22,.79,0,1.58,0,2.37,0Zm1.79,2.65v-2.03h-3.59v2.03h3.59Z"/><path class="cls-1" d="M4.88,39.11c0-.44,0-.88,0-1.32,0-.21,.17-.32,.54-.32,.38,0,.75,0,1.13,0,1.09,0,2.18,0,3.26-.01,.7,0,.87,.08,.87,.48,0,.79,0,1.59,0,2.38,0,.07-.01,.14-.04,.21-.07,.17-.2,.22-.5,.22-1.57,0-3.15,0-4.72,0-.34,0-.53-.12-.53-.31,0-.44,0-.89,0-1.33Zm4.69-1.01h-3.6v2.03h3.6v-2.03Z"/><path class="cls-1" d="M17.39,39.37h-3.59v-.45h-1.12v1.83c-.24,0-.45,0-.66,0-.19,0-.32-.08-.36-.18-.04-.11-.06-.22-.06-.33-.01-.76-.01-1.52-.02-2.29,0-.38,.14-.47,.8-.47,.92,0,1.85,0,2.8,0v1.24h1.13v-1.23c.31-.03,.6-.04,.86,.04,.1,.03,.21,.11,.22,.17,.02,.55,0,1.11,0,1.67Z"/><path class="cls-1" d="M16.15,40.74v-.72h1.24c0,.16,.01,.32,0,.48-.01,.12-.21,.23-.41,.24-.27,0-.54,0-.83,0Z"/><path class="cls-1" d="M13.82,40.02h1.16v.72h-1.16v-.72Z"/><path d="M9.56,36.31h-3.58v-2.04h3.58v2.04Zm-1.79-1.43c-.43,0-.72,.16-.72,.41,0,.25,.3,.42,.73,.43,.42,0,.74-.18,.74-.42,0-.24-.32-.41-.75-.41Z"/><path d="M16.29,36.31h-3.59v-2.03h3.59v2.03Zm-1.77-1.43c-.46,0-.75,.17-.75,.42,0,.24,.3,.41,.72,.41,.42,0,.73-.18,.72-.43,0-.24-.29-.41-.7-.41Z"/><path d="M9.57,38.1v2.03h-3.6v-2.03h3.6Zm-1.79,1.42c.43,0,.73-.16,.74-.4,0-.23-.33-.42-.74-.42-.44,0-.74,.17-.75,.41-.01,.23,.32,.41,.76,.41Z"/><path class="cls-1" d="M7.76,34.88c.43,0,.75,.17,.75,.41,0,.24-.33,.42-.74,.42-.42,0-.73-.18-.73-.43,0-.24,.29-.41,.72-.41Z"/><path class="cls-1" d="M14.52,34.88c.41,0,.7,.17,.7,.41,0,.25-.3,.42-.72,.43-.43,0-.72-.16-.72-.41,0-.25,.29-.42,.75-.42Z"/><path class="cls-1" d="M7.77,39.52c-.44,0-.77-.18-.76-.41,.01-.25,.31-.41,.75-.41,.42,0,.75,.19,.74,.42,0,.24-.31,.41-.74,.4Z"/></g></g></g></g></svg>